<svg version="1.1" viewBox="0.0 0.0 1081.0813648293963 971.6220472440945" fill="none" stroke="none" stroke-linecap="square" stroke-miterlimit="10" xmlns:xlink="http://www.w3.org/1999/xlink" xmlns="http://www.w3.org/2000/svg"><clipPath id="p.0"><path d="m0 0l1081.0814 0l0 971.6221l-1081.0814 0l0 -971.6221z" clip-rule="nonzero"/></clipPath><g clip-path="url(#p.0)"><path fill="#000000" fill-opacity="0.0" d="m0 0l1081.0814 0l0 971.6221l-1081.0814 0z" fill-rule="evenodd"/><path fill="#ffffff" d="m132.57147 211.7955l0 0c0 -34.54016 28.000336 -62.540497 62.540497 -62.540497l250.15448 0l0 0c16.586761 0 32.4942 6.5890656 44.22281 18.317688c11.728607 11.728622 18.317688 27.636032 18.317688 44.22281l0 332.04593c0 34.54016 -28.000336 62.540466 -62.540497 62.540466l-250.15448 0c-34.54016 0 -62.540497 -28.000305 -62.540497 -62.540466z" fill-rule="evenodd"/><path fill="#ffffff" d="m818.92773 752.6629l-356.2238 0l0 0c-34.375183 0 -67.34247 -13.655457 -91.649414 -37.962402c-24.306946 -24.306946 -37.962433 -57.27423 -37.962433 -91.649414l0 -129.61185c0 -0.0028381348 0.0022888184 -0.005126953 0.005126953 -0.005126953l615.4424 0.005126953l0 0c0.0028076172 0 0.005126953 0.0022888184 0.005126953 0.005126953l-0.005126953 129.60672l0 0c0 71.58264 -58.029236 129.61182 -129.61188 129.61182z" fill-rule="evenodd"/><path fill="#ffffff" d="m920.7102 401.39948l0 0c15.171326 0 27.470154 12.298798 27.470154 27.470154l0 0l0 0c0 7.2855225 -2.894165 14.272675 -8.045837 19.424316c-5.1516724 5.151642 -12.138794 8.045837 -19.424316 8.045837l-357.32343 0c-15.171387 0 -27.470154 -12.298828 -27.470154 -27.470154l0 0l0 0c0 -15.171356 12.298767 -27.470154 27.470154 -27.470154z" fill-rule="evenodd"/><path fill="#ffffff" d="m227.4908 916.2531l45.158096 -333.54083l437.7493 0l45.15808 333.54083z" fill-rule="evenodd"/><path fill="#ffffff" d="m475.16638 55.370426l0 0c18.401367 0 33.318634 14.917263 33.318634 33.31863l0 0l0 0c0 8.836655 -3.5103455 17.311378 -9.75882 23.559837c-6.2484436 6.248451 -14.723175 9.758797 -23.559814 9.758797l-309.30576 0c-18.401367 0 -33.318634 -14.917259 -33.318634 -33.318634l0 0l0 0c0 -18.401367 14.917267 -33.31863 33.318634 -33.31863z" fill-rule="evenodd"/><path fill="#ffffff" d="m132.57147 149.255l375.23547 0l0 181.2439l-375.23547 0z" fill-rule="evenodd"/><path fill="#ffffff" d="m132.89577 86.39496l375.23547 0l0 35.563507l-375.23547 0z" fill-rule="evenodd"/><path fill="#ffffff" d="m535.9866 428.72192l412.49957 0l0 35.563507l-412.49957 0z" fill-rule="evenodd"/></g></svg>