<?xml version="1.0" standalone="no"?>
<!DOCTYPE svg PUBLIC "-//W3C//DTD SVG 20010904//EN"
 "http://www.w3.org/TR/2001/REC-SVG-20010904/DTD/svg10.dtd">
<svg version="1.0" xmlns="http://www.w3.org/2000/svg"
 width="300.000000pt" height="300.000000pt" viewBox="0 0 300.000000 300.000000"
 preserveAspectRatio="xMidYMid meet">
<metadata>
Created by potrace 1.10, written by Peter Selinger 2001-2011
</metadata>
<g transform="translate(0.000000,300.000000) scale(0.100000,-0.100000)"
fill="#000000" stroke="none">
<path d="M275 2991 c-105 -18 -155 -92 -155 -229 0 -54 4 -67 25 -88 l25 -25
0 -513 c0 -549 1 -557 51 -627 18 -26 20 -34 9 -60 -16 -39 -7 -114 17 -148
44 -58 73 -66 250 -66 l163 0 0 -240 c0 -255 6 -298 47 -352 26 -34 95 -73
131 -73 14 0 22 -6 22 -17 0 -10 -16 -126 -35 -258 -19 -132 -35 -246 -35
-252 0 -14 48 -49 56 -41 2 3 0 18 -6 34 -8 21 -9 45 -1 84 6 30 22 139 37
243 30 218 29 224 -54 251 -27 9 -60 29 -74 44 -22 24 -52 111 -47 138 1 5 1
102 0 216 -1 276 11 260 -204 262 -141 2 -160 4 -185 23 -43 32 -53 60 -47
131 6 55 3 69 -22 120 l-28 57 -3 520 -2 520 -23 30 c-19 26 -22 42 -21 109 2
91 14 113 89 163 43 29 76 55 65 52 -3 -1 -23 -5 -45 -8z"/>
<path d="M1035 2980 c4 -6 25 -20 48 -31 48 -25 83 -63 92 -100 8 -36 41 -64
74 -64 l26 0 2 -262 c1 -145 -1 -263 -6 -263 -4 0 -8 91 -8 203 0 162 -4 209
-16 232 l-15 30 -6 -65 c-3 -36 -5 -300 -4 -587 l3 -523 -43 0 c-41 0 -42 1
-30 23 10 17 14 124 16 451 2 383 4 432 19 448 21 23 21 72 1 95 -28 31 -26
73 5 104 27 28 35 49 18 49 -5 0 -26 -15 -45 -34 -43 -40 -47 -80 -15 -133
l22 -35 -24 -31 c-22 -31 -23 -35 -23 -289 0 -142 -3 -258 -7 -258 -4 0 -8 93
-8 208 -3 469 -4 489 -27 512 -20 20 -30 21 -415 21 l-394 0 -22 -28 -23 -28
0 -503 c0 -484 1 -504 20 -542 37 -73 27 -71 416 -71 384 1 369 -2 418 65 19
25 21 45 25 192 1 90 6 164 11 164 9 0 6 -293 -4 -336 -16 -72 73 -113 125
-58 l24 26 0 344 c-1 189 3 344 7 344 4 0 8 -135 8 -299 l0 -300 24 -19 c21
-16 33 -18 83 -11 32 4 308 6 613 6 623 -2 572 4 649 -77 28 -29 47 -39 82
-44 113 -17 143 -149 49 -216 -35 -25 -55 -59 -63 -110 -11 -63 -17 -89 -28
-117 -6 -16 -9 -28 -8 -28 10 0 -68 -128 -97 -160 -20 -22 -41 -47 -47 -56
-23 -31 -129 -110 -185 -138 -112 -56 -211 -75 -400 -75 -205 -1 -202 13 -96
-406 28 -112 33 -154 19 -184 -7 -16 -5 -17 16 -11 50 16 50 15 -26 329 -30
125 -55 228 -55 230 0 2 87 6 193 8 176 5 198 7 267 32 269 96 448 315 495
606 4 27 13 38 38 50 45 21 80 91 74 149 -8 76 -66 131 -146 139 -28 2 -51 8
-51 13 0 15 -53 70 -83 86 -27 14 -102 15 -634 15 -405 -1 -610 -5 -623 -12
-20 -11 -20 -6 -20 573 0 553 -1 585 -18 600 -24 22 -38 21 -61 -2 -18 -18
-19 -18 -24 21 -6 45 -46 101 -91 129 -33 20 -102 27 -91 9z m35 -846 c0 -410
-3 -511 -14 -538 -8 -19 -18 -36 -23 -39 -6 -4 -169 -7 -364 -8 l-354 -1 -22
32 -23 33 0 516 0 516 400 -3 400 -2 0 -506z"/>
<path d="M276 2930 c-82 -25 -125 -137 -76 -200 l19 -25 449 0 c428 0 451 1
471 19 16 14 21 31 21 67 0 62 -13 88 -59 121 l-38 27 -379 0 c-208 0 -392 -4
-408 -9z m805 -40 c27 -15 49 -63 49 -110 l0 -40 -458 0 -458 0 6 56 c5 45 12
62 34 80 l27 24 390 0 c249 0 397 -4 410 -10z"/>
<path d="M1371 1583 c-21 -17 5 -18 574 -15 430 2 602 -1 618 -9 l22 -11 -23
23 -22 24 -574 2 c-534 3 -575 2 -595 -14z"/>
<path d="M1376 1541 c-18 -7 -18 -8 -2 -14 23 -9 1143 -9 1175 0 23 6 23 7 5
14 -25 10 -1153 10 -1178 0z"/>
<path d="M753 1492 l-403 -2 -35 -35 c-55 -55 -44 -114 27 -148 29 -14 166
-15 1193 -16 639 0 1178 4 1200 9 40 9 84 52 85 83 0 27 -28 75 -53 89 -17 10
-197 14 -817 18 -437 3 -976 4 -1197 2z m2009 -59 c25 -23 23 -68 -4 -87 -20
-14 -152 -16 -1214 -16 l-1193 0 -20 27 c-23 28 -20 59 7 81 12 9 270 12 1211
12 1097 0 1196 -1 1213 -17z"/>
<path d="M877 1270 c-166 -7 -156 10 -157 -290 0 -204 2 -240 18 -270 23 -46
75 -80 123 -80 63 0 73 -20 55 -115 -2 -11 -11 -73 -20 -137 -10 -65 -19 -125
-20 -135 -2 -10 -7 -46 -11 -79 -6 -59 -5 -62 21 -83 26 -21 32 -21 465 -21
313 0 445 3 464 12 44 20 44 47 1 213 -8 33 -18 75 -21 94 -3 19 -8 37 -10 41
-2 4 -6 20 -9 36 -3 16 -13 56 -21 88 -10 38 -12 63 -6 69 5 5 38 9 73 9 35
-1 94 -2 132 -2 161 -3 263 18 381 77 107 54 158 96 238 194 43 53 117 208
117 244 0 14 4 25 8 25 18 0 5 62 -19 85 l-25 26 -830 2 c-456 1 -882 0 -947
-3z m1778 -121 c-9 -35 -32 -97 -52 -138 -48 -100 -169 -224 -268 -274 -125
-62 -160 -69 -380 -74 -228 -4 -241 -6 -250 -32 -3 -10 22 -132 55 -271 33
-139 60 -254 60 -256 0 -2 -208 -4 -463 -4 l-463 0 38 253 c20 138 37 257 37
262 1 27 -21 39 -84 46 -54 5 -72 12 -94 33 l-26 26 -5 255 -5 255 955 2 c712
2 956 0 958 -8 2 -7 -4 -41 -13 -75z"/>
</g>
</svg>
