<?xml version="1.0" standalone="no"?>
<!DOCTYPE svg PUBLIC "-//W3C//DTD SVG 20010904//EN"
 "http://www.w3.org/TR/2001/REC-SVG-20010904/DTD/svg10.dtd">
<svg version="1.0" xmlns="http://www.w3.org/2000/svg"
 width="300.000000pt" height="454.000000pt" viewBox="0 0 300.000000 454.000000"
 preserveAspectRatio="xMidYMid meet">
<metadata>
Created by potrace 1.10, written by Peter Selinger 2001-2011
</metadata>
<g transform="translate(0.000000,454.000000) scale(0.100000,-0.100000)"
fill="#000000" stroke="none">
<path d="M680 4353 c-85 -81 -201 -192 -258 -248 l-103 -100 3 -162 3 -162
198 180 197 180 0 -501 0 -500 115 0 115 0 2 498 3 499 200 -178 200 -178 3
157 3 157 -258 252 c-142 139 -260 253 -263 253 -3 0 -75 -66 -160 -147z m401
-140 l229 -227 0 -98 c0 -54 -4 -98 -8 -98 -5 0 -56 42 -113 93 -185 164 -201
177 -224 177 -50 0 -50 -1 -55 -504 l-5 -471 -70 0 -70 0 -5 471 c-5 503 -5
504 -55 504 -14 0 -74 -48 -171 -135 -82 -74 -152 -135 -156 -135 -5 0 -8 47
-8 104 0 85 3 107 18 124 48 55 442 422 453 422 6 0 114 -102 240 -227z"/>
<path d="M1940 3939 l0 -501 -42 37 c-24 21 -65 59 -93 84 -175 161 -253 231
-259 231 -3 0 -6 -74 -6 -164 l0 -165 261 -245 261 -246 132 128 c72 70 188
182 257 247 l126 120 4 160 c2 88 3 162 2 164 -1 2 -92 -76 -202 -173 -110
-97 -201 -176 -203 -176 -2 0 -2 225 0 500 l3 500 -121 0 -120 0 0 -501z m194
435 c3 -9 6 -219 6 -468 0 -441 0 -453 20 -474 12 -12 25 -22 29 -22 13 0 88
61 221 178 63 56 118 102 123 102 4 0 7 -45 7 -100 l0 -100 -152 -148 c-284
-274 -314 -302 -329 -302 -8 0 -116 97 -241 216 l-228 215 0 110 c0 91 2 109
14 102 8 -4 71 -60 141 -123 70 -63 141 -124 158 -134 l30 -20 23 28 24 27 0
458 c0 252 3 461 7 464 3 4 37 7 74 7 52 0 68 -4 73 -16z"/>
<path d="M267 2939 c-87 -21 -152 -73 -199 -162 l-23 -42 0 -1245 0 -1245 23
-43 c35 -66 87 -117 145 -143 l52 -24 1230 0 1230 0 52 24 c61 27 116 84 147
150 l21 46 0 1240 0 1240 -23 42 c-35 66 -79 110 -140 140 l-57 28 -1210 2
c-688 1 -1226 -3 -1248 -8z m2479 -49 c47 -16 109 -74 136 -128 l23 -47 3
-1195 c2 -837 -1 -1211 -9 -1248 -13 -65 -59 -127 -124 -167 l-48 -30 -1226 0
c-1110 0 -1229 2 -1262 16 -51 23 -107 75 -132 123 l-22 41 0 1235 c0 1162 1
1237 18 1267 42 78 101 126 172 141 57 11 2434 4 2471 -8z"/>
<path d="M337 2787 c-53 -17 -106 -63 -128 -111 -18 -39 -19 -88 -19 -1186 0
-1086 1 -1147 19 -1185 23 -51 79 -101 128 -114 56 -16 2278 -15 2324 0 51 18
97 55 122 102 l22 42 0 1140 c0 627 -4 1157 -8 1178 -12 59 -80 122 -146 136
-76 16 -2261 14 -2314 -2z m2353 -54 c19 -12 44 -37 55 -55 20 -32 20 -51 20
-1188 0 -1137 0 -1156 -20 -1188 -11 -18 -36 -43 -55 -55 l-35 -22 -1155 0
c-1137 0 -1156 0 -1189 20 -19 11 -43 33 -55 48 l-21 28 -3 1157 c-2 1086 -1
1159 15 1191 21 41 58 70 104 81 19 5 545 7 1169 7 l1135 -2 35 -22z"/>
<path d="M786 2460 c-141 -43 -195 -220 -98 -324 61 -65 160 -83 240 -45 112
55 145 204 65 299 -47 56 -144 89 -207 70z m134 -62 c53 -37 74 -72 74 -126 0
-65 -31 -114 -90 -143 -77 -37 -150 -15 -202 62 -46 66 -15 175 60 212 49 24
118 22 158 -5z"/>
<path d="M2048 2461 c-84 -17 -122 -70 -123 -172 0 -54 4 -72 25 -102 36 -54
98 -81 167 -74 63 7 91 22 129 72 53 70 30 212 -41 253 -38 23 -106 33 -157
23z m148 -75 c31 -31 34 -39 34 -96 0 -57 -3 -65 -33 -95 -44 -44 -93 -53
-153 -30 -37 14 -50 25 -65 59 -21 47 -23 67 -8 119 14 52 56 77 133 77 53 0
61 -3 92 -34z"/>
<path d="M1893 1999 c-25 -10 -67 -56 -251 -281 -147 -178 -162 -200 -162
-235 0 -38 33 -107 49 -101 7 2 297 348 393 469 l28 34 -4 -63 c-4 -54 -14
-81 -74 -195 -56 -106 -236 -458 -250 -489 -2 -5 82 -8 187 -8 l192 0 -3 -310
-3 -310 103 0 103 0 -3 311 -3 310 163 -3 c89 -2 162 -2 162 -1 0 2 -204 430
-259 543 -43 90 -51 114 -51 163 l0 59 42 -54 c79 -99 380 -453 389 -456 17
-7 51 88 45 122 -7 37 -373 481 -406 491 -29 9 -364 13 -387 4z m378 -49 c17
-9 272 -309 342 -401 26 -35 37 -89 18 -89 -5 0 -82 87 -171 193 -185 219
-212 247 -241 247 -29 0 -53 -61 -45 -114 4 -23 67 -167 141 -320 73 -154 131
-284 129 -288 -3 -4 -59 -8 -124 -8 -163 0 -160 4 -161 -189 -1 -80 -4 -209
-8 -286 l-6 -140 -50 0 -50 0 -5 286 c-5 264 -7 289 -24 308 -18 19 -29 21
-163 21 -117 0 -145 3 -149 15 -3 8 7 40 23 72 254 503 253 500 253 550 0 49
-20 93 -43 93 -19 0 -86 -74 -252 -273 -81 -97 -151 -174 -156 -171 -28 17 -1
61 142 235 83 101 169 203 192 227 l41 42 174 0 c100 0 181 -4 193 -10z"/>
<path d="M455 1985 c-42 -20 -73 -49 -85 -80 -6 -15 -10 -147 -10 -324 0 -294
0 -299 23 -332 24 -35 89 -79 120 -79 16 0 17 21 17 300 l0 300 40 0 40 0 0
-615 0 -615 113 0 112 0 -4 405 -3 405 43 0 44 0 -3 -405 -2 -405 100 0 100 0
0 615 0 615 40 0 40 0 0 -295 0 -295 28 6 c75 18 128 68 137 127 4 23 5 167 3
319 -4 397 35 368 -488 368 -301 -1 -381 -4 -405 -15z m777 -35 c68 -19 68
-19 68 -356 l0 -302 -31 -26 c-17 -14 -35 -24 -40 -20 -5 3 -9 117 -9 260 l0
255 -25 24 c-30 31 -73 32 -103 5 -12 -12 -23 -22 -24 -23 -2 -1 -5 -267 -8
-592 l-5 -590 -43 -3 c-75 -6 -72 -24 -72 391 0 367 0 371 -22 394 -28 30 -83
31 -115 1 l-23 -21 0 -378 c0 -334 -2 -378 -16 -383 -27 -10 -99 -7 -112 6 -9
9 -12 154 -12 590 l0 579 -25 24 c-30 31 -73 32 -109 4 l-26 -20 0 -264 c0
-167 -4 -266 -10 -270 -6 -4 -24 7 -40 24 l-30 29 0 292 c0 341 1 344 90 373
30 10 705 7 742 -3z"/>
</g>
</svg>
