<?xml version="1.0" standalone="no"?>
<!DOCTYPE svg PUBLIC "-//W3C//DTD SVG 20010904//EN"
 "http://www.w3.org/TR/2001/REC-SVG-20010904/DTD/svg10.dtd">
<svg version="1.0" xmlns="http://www.w3.org/2000/svg"
 width="200.000000pt" height="200.000000pt" viewBox="0 0 200.000000 200.000000"
 preserveAspectRatio="xMidYMid meet">
<metadata>
Created by potrace 1.10, written by Peter Selinger 2001-2011
</metadata>
<g transform="translate(0.000000,200.000000) scale(0.100000,-0.100000)"
fill="#000000" stroke="none">
<path d="M630 1824 c0 -164 1 -176 18 -169 9 4 29 10 45 13 l27 4 0 119 0 119
530 0 530 0 0 -935 0 -935 45 0 45 0 0 980 c0 973 0 980 -20 980 -17 0 -20 -7
-20 -45 0 -25 -3 -45 -6 -45 -3 0 -17 9 -31 20 -25 19 -41 20 -543 20 -499 0
-518 -1 -542 -20 -31 -24 -38 -18 -38 32 0 31 -3 38 -20 38 -19 0 -20 -7 -20
-176z"/>
<path d="M1478 1826 l-238 -61 0 -796 0 -797 191 -66 c144 -50 204 -66 245
-66 l54 0 0 925 c0 509 -3 924 -7 924 -5 -1 -115 -29 -245 -63z m206 -12 c8
-20 8 -1698 0 -1718 -3 -9 -16 -16 -29 -16 -27 0 -344 107 -362 122 -10 8 -13
81 -13 324 l0 314 22 0 c12 0 32 10 45 22 46 43 16 148 -43 148 l-24 0 0 354
c0 275 3 356 13 364 11 9 341 99 373 101 7 1 15 -6 18 -15z m-360 -850 c20
-19 21 -54 2 -79 -12 -16 -16 -17 -30 -6 -19 16 -21 72 -4 89 15 15 13 15 32
-4z"/>
<path d="M653 1610 c-46 -28 -66 -72 -60 -133 14 -150 224 -164 268 -17 15 50
-2 100 -47 140 -28 24 -44 30 -82 30 -29 0 -59 -8 -79 -20z m136 -46 c42 -35
44 -98 5 -138 -59 -58 -164 -14 -164 69 0 27 8 44 29 66 39 38 87 39 130 3z"/>
<path d="M432 1241 c-101 -54 -191 -105 -199 -114 -16 -16 -62 -223 -63 -283
0 -55 59 -84 93 -46 8 9 25 72 38 140 l23 123 80 44 c44 24 81 43 82 42 1 -1
-15 -78 -36 -172 -21 -93 -50 -248 -64 -343 l-27 -173 -110 -170 c-128 -198
-134 -211 -117 -247 18 -38 84 -43 115 -10 29 33 223 336 238 372 6 17 20 86
30 154 10 67 19 122 20 122 30 0 77 -42 165 -147 58 -69 108 -133 113 -142 4
-9 23 -89 41 -179 21 -102 41 -171 52 -183 17 -19 69 -26 90 -11 35 23 35 47
-6 237 -22 103 -43 192 -47 198 -4 7 -61 76 -127 155 l-119 144 27 131 c16 73
30 139 33 147 2 8 19 -18 37 -59 19 -40 38 -76 42 -81 15 -14 237 -110 254
-110 24 0 50 32 50 63 0 32 -13 41 -140 97 l-95 41 -75 156 c-81 169 -102 193
-173 199 -37 4 -63 -7 -225 -95z m273 34 c11 -7 51 -75 88 -151 38 -77 78
-150 90 -163 12 -12 56 -38 97 -57 94 -43 103 -48 108 -62 6 -20 -22 -13 -109
26 -112 50 -112 49 -144 109 -47 88 -76 102 -109 51 -20 -30 -69 -256 -62
-283 4 -17 130 -177 233 -296 14 -16 83 -318 83 -363 0 -13 -6 -29 -13 -35
-26 -21 -44 22 -78 183 -22 109 -40 169 -56 193 -50 74 -213 260 -238 271 -71
33 -98 2 -120 -143 -10 -60 -23 -124 -30 -141 -18 -45 -228 -363 -243 -369
-20 -7 -32 3 -32 28 0 12 51 102 114 199 l113 176 27 174 c29 180 39 235 76
402 18 82 20 103 9 122 -19 36 -38 37 -106 4 -99 -49 -117 -73 -137 -179 -20
-112 -33 -148 -47 -134 -12 12 25 239 42 259 12 14 338 190 365 197 23 6 52
-1 79 -18z"/>
<path d="M630 297 l0 -257 45 0 45 0 0 203 0 202 -41 50 c-23 28 -43 52 -45
54 -2 2 -4 -111 -4 -252z"/>
</g>
</svg>
