<?xml version="1.0" standalone="no"?>
<!DOCTYPE svg PUBLIC "-//W3C//DTD SVG 20010904//EN"
 "http://www.w3.org/TR/2001/REC-SVG-20010904/DTD/svg10.dtd">
<svg version="1.0" xmlns="http://www.w3.org/2000/svg"
 width="200.000000pt" height="200.000000pt" viewBox="0 0 200.000000 200.000000"
 preserveAspectRatio="xMidYMid meet">
<metadata>
Created by potrace 1.10, written by Peter Selinger 2001-2011
</metadata>
<g transform="translate(0.000000,200.000000) scale(0.100000,-0.100000)"
fill="#000000" stroke="none">
<path d="M462 1873 c-80 -39 -114 -141 -73 -220 28 -56 72 -86 136 -91 100 -8
177 60 177 157 0 128 -128 210 -240 154z m128 -38 c65 -34 89 -109 55 -175
-41 -80 -166 -78 -215 3 -25 41 -25 83 0 125 34 55 104 76 160 47z"/>
<path d="M401 1505 c-16 -19 -34 -52 -39 -72 -6 -21 -15 -171 -21 -333 l-11
-295 23 -45 c16 -33 34 -51 66 -67 24 -12 46 -24 49 -27 2 -3 -34 -4 -81 -3
-83 2 -86 3 -90 27 -3 14 -17 119 -32 235 -15 116 -32 222 -37 238 -18 48 -91
45 -103 -6 -5 -18 36 -326 61 -464 5 -26 3 -33 -9 -33 -22 0 -47 -28 -47 -51
0 -10 9 -28 20 -39 18 -18 33 -20 140 -20 l120 0 0 -115 0 -115 -125 0 c-122
0 -125 0 -141 -25 -23 -35 -6 -73 37 -82 21 -4 27 -9 20 -16 -15 -15 -14 -50
1 -65 15 -15 61 -15 76 0 15 15 15 51 0 66 -9 9 27 12 164 12 l175 0 -1 -36
c-1 -43 19 -60 57 -50 30 7 43 37 27 66 -9 17 -8 20 9 20 45 0 68 62 35 94
-12 13 -39 16 -125 16 l-109 0 0 115 0 115 108 0 c93 0 111 3 125 18 22 24 22
68 0 81 -15 8 -11 10 20 11 23 0 37 -5 37 -12 0 -48 41 -331 50 -347 20 -39
67 -51 113 -30 47 22 49 42 17 271 -16 117 -32 223 -35 235 -9 39 -54 53 -167
53 l-104 0 3 38 c1 20 4 67 6 104 l3 66 -36 11 c-75 22 -176 140 -219 256 -19
50 -20 59 -7 89 28 68 131 67 157 -2 20 -52 53 -112 79 -144 l27 -32 6 97 c7
116 -2 152 -46 195 -31 30 -35 31 -71 21 -28 -8 -51 -8 -82 0 -59 15 -58 15
-93 -24z m231 -46 c14 -18 18 -38 16 -70 l-4 -44 -16 36 c-10 20 -29 50 -42
66 -14 17 -22 33 -19 37 14 13 46 1 65 -25z m-200 -246 c32 -57 128 -161 181
-196 26 -17 27 -22 27 -99 0 -70 3 -85 22 -105 19 -21 30 -23 114 -23 133 0
128 6 159 -215 31 -221 31 -251 6 -265 -49 -26 -62 6 -86 199 -18 140 -31 175
-68 185 -31 8 -72 -24 -72 -58 0 -38 -19 -46 -117 -46 -82 0 -88 -2 -107 -26
-18 -23 -21 -41 -21 -129 0 -95 2 -104 25 -129 23 -24 30 -26 114 -26 55 0 92
-4 97 -11 3 -6 -5 -22 -19 -36 l-25 -26 -27 22 c-26 19 -39 21 -185 21 -145 0
-159 -2 -184 -21 l-27 -21 -25 23 c-45 42 -34 49 80 49 89 0 107 3 130 21 25
20 26 23 26 132 0 100 -2 113 -22 134 -20 21 -30 23 -122 23 -124 0 -137 6
-106 48 27 36 26 65 -14 327 -23 150 -22 196 3 170 5 -6 21 -104 35 -220 29
-225 41 -270 82 -285 56 -22 166 -1 172 33 2 11 -14 34 -42 60 -25 23 -50 55
-56 71 -9 25 -7 242 5 371 2 22 4 55 4 73 1 17 3 32 6 32 3 0 19 -26 37 -57z"/>
<path d="M470 1400 c-26 -26 -25 -38 5 -107 82 -183 224 -265 352 -201 47 23
147 124 173 172 12 24 12 31 -1 54 -9 17 -25 28 -41 30 -22 3 -34 -6 -68 -50
-129 -164 -219 -157 -306 26 -47 97 -74 116 -114 76z m69 -73 c19 -53 73 -128
114 -158 75 -54 157 -27 247 80 29 34 47 48 53 42 13 -13 -35 -83 -84 -122
-104 -83 -195 -76 -282 20 -41 45 -87 130 -87 160 0 30 27 15 39 -22z"/>
<path d="M730 1307 c0 -111 6 -117 64 -66 l35 30 -45 62 c-25 34 -48 64 -50
66 -2 2 -4 -39 -4 -92z"/>
<path d="M1055 1380 c-4 -6 -17 -15 -29 -20 l-21 -9 23 -7 c17 -5 22 -14 22
-39 0 -18 -6 -36 -12 -39 -10 -5 -10 -7 0 -12 6 -3 12 -14 12 -25 0 -17 8 -19
60 -19 l61 0 -3 88 -3 87 -52 3 c-30 2 -54 -2 -58 -8z m70 -85 c0 -29 -4 -40
-15 -40 -11 0 -16 13 -18 43 -3 38 -1 43 15 40 14 -2 18 -13 18 -43z"/>
<path d="M1235 1204 c-60 -52 -111 -98 -112 -102 -5 -13 116 -84 129 -76 22
13 191 155 231 195 36 35 37 38 17 44 -12 4 -27 1 -36 -6 -12 -10 -24 -7 -63
15 -27 14 -50 26 -52 26 -2 0 -53 -43 -114 -96z m150 34 c42 -19 41 -20 -73
-112 -70 -57 -73 -58 -97 -42 -13 9 -22 22 -19 29 5 11 151 137 159 137 2 0
16 -5 30 -12z"/>
<path d="M1685 1200 c-159 -7 -157 -24 3 -28 117 -2 122 -2 122 18 0 11 -1 19
-2 18 -2 -1 -57 -4 -123 -8z"/>
<path d="M917 1120 c-43 -42 -41 -46 34 -79 34 -16 65 -21 139 -21 l94 0 -58
36 c-40 25 -54 40 -47 47 7 7 -6 16 -42 29 -78 28 -79 28 -120 -12z m93 -25
c32 -16 40 -35 16 -35 -29 0 -66 20 -66 35 0 19 13 19 50 0z"/>
<path d="M1542 1140 c5 -22 238 -22 238 0 0 12 -20 15 -120 15 -101 0 -120 -2
-118 -15z"/>
<path d="M1570 1095 c0 -12 18 -15 104 -15 57 0 111 -3 120 -6 12 -4 16 0 16
15 0 20 -5 21 -120 21 -100 0 -120 -2 -120 -15z"/>
<path d="M1542 1052 c-2 -7 -2 -15 0 -18 3 -2 60 -3 126 -2 89 2 119 6 114 15
-11 17 -233 22 -240 5z"/>
<path d="M920 938 l0 -58 455 0 456 0 -3 55 -3 55 -453 3 -452 2 0 -57z m850
3 c0 -19 -40 -21 -348 -21 -326 0 -455 6 -446 21 7 12 794 12 794 0z"/>
<path d="M1060 530 l0 -330 108 0 109 0 -5 29 c-5 36 13 71 37 71 14 0 17 8
17 35 -1 19 -4 35 -8 35 -19 0 -48 42 -48 68 0 29 26 62 48 62 8 0 10 9 6 25
-4 16 0 34 10 50 l16 25 200 0 200 0 0 130 0 130 -345 0 -345 0 0 -330z m634
274 c11 -10 16 -34 16 -74 0 -95 11 -90 -177 -90 -192 0 -209 -5 -243 -77 -12
-26 -31 -59 -41 -72 -25 -31 -24 -64 3 -113 l22 -39 -19 -36 c-11 -20 -26 -42
-33 -50 -17 -16 -94 -17 -110 -1 -16 16 -17 520 -2 549 10 18 24 19 290 19
240 0 281 -2 294 -16z"/>
<path d="M1355 550 c-15 -47 0 -50 269 -50 l251 0 0 35 0 35 -257 0 c-250 0
-257 -1 -263 -20z"/>
<path d="M1304 456 c-3 -8 -4 -23 -2 -33 3 -17 21 -18 261 -21 l257 -2 0 35 0
35 -255 0 c-213 0 -257 -2 -261 -14z"/>
<path d="M1605 370 c-250 -5 -250 -5 -253 -28 -2 -12 3 -24 10 -27 7 -2 126
-6 263 -7 l250 -3 0 38 c0 20 -4 36 -10 35 -5 -1 -122 -5 -260 -8z"/>
<path d="M1560 270 l-255 -5 0 -25 0 -25 260 -3 260 -2 -1 30 c0 17 -3 31 -5
33 -2 1 -119 0 -259 -3z"/>
<path d="M1360 165 c-6 -8 -9 -23 -5 -35 6 -19 13 -20 263 -20 l257 0 1 35 1
35 -253 0 c-208 0 -254 -3 -264 -15z"/>
</g>
</svg>
