<?xml version="1.0" standalone="no"?>
<!DOCTYPE svg PUBLIC "-//W3C//DTD SVG 20010904//EN"
 "http://www.w3.org/TR/2001/REC-SVG-20010904/DTD/svg10.dtd">
<svg version="1.0" xmlns="http://www.w3.org/2000/svg"
 width="300.000000pt" height="307.000000pt" viewBox="0 0 300.000000 307.000000"
 preserveAspectRatio="xMidYMid meet">
<metadata>
Created by potrace 1.10, written by Peter Selinger 2001-2011
</metadata>
<g transform="translate(0.000000,307.000000) scale(0.100000,-0.100000)"
fill="#000000" stroke="none">
<path d="M2006 3044 c-72 -23 -150 -104 -172 -179 -53 -185 78 -365 266 -365
78 0 131 22 193 79 64 60 91 126 85 216 -3 38 -13 86 -22 105 -25 49 -83 108
-131 132 -53 27 -154 33 -219 12z m173 -39 c100 -35 151 -104 159 -215 4 -60
1 -73 -23 -119 -46 -84 -123 -130 -220 -130 -146 -1 -259 145 -226 293 16 73
54 120 125 156 67 34 120 38 185 15z"/>
<path d="M2155 2424 c-51 -26 -150 -131 -287 -305 l-130 -166 -196 -21 c-212
-23 -223 -27 -259 -96 -20 -38 -13 -114 13 -149 35 -49 76 -60 186 -53 149 10
356 43 396 63 20 10 55 41 77 70 22 28 42 52 45 52 4 1 5 -104 1 -252 l-1 -47
-183 -89 c-207 -100 -242 -125 -257 -183 -16 -57 15 -529 37 -576 39 -82 139
-113 223 -70 75 39 86 69 81 228 -3 74 -5 164 -5 200 l-1 65 95 47 c52 26 100
47 105 47 6 1 53 -173 104 -386 110 -457 142 -572 165 -608 26 -40 98 -68 152
-60 73 11 134 77 134 147 0 35 -65 321 -167 738 l-64 265 5 170 c3 94 6 250 6
348 l0 179 53 -38 c104 -75 104 -74 112 -182 4 -53 13 -155 20 -226 12 -118
16 -131 41 -157 60 -62 156 -59 215 8 l32 37 -6 125 c-12 223 -36 441 -53 470
-28 46 -437 354 -529 397 -58 27 -117 31 -160 8z m151 -49 c111 -56 486 -342
503 -383 15 -38 28 -139 42 -348 14 -200 9 -232 -37 -253 -40 -18 -90 -13
-119 12 -31 27 -38 64 -55 297 l-13 165 -53 52 c-28 28 -71 61 -94 73 l-43 22
-23 -24 c-22 -23 -22 -23 -25 -383 l-3 -360 46 -185 c95 -379 167 -691 175
-757 5 -50 4 -54 -29 -87 -43 -43 -72 -51 -122 -34 -73 24 -69 14 -217 622
-49 203 -96 380 -104 393 -10 15 -25 23 -44 23 -41 0 -179 -65 -212 -101 l-28
-30 6 -199 6 -198 -30 -31 c-59 -59 -153 -48 -194 24 -19 32 -38 233 -42 442
-2 98 0 115 18 140 14 19 77 56 205 119 101 50 192 101 202 114 15 19 18 42
18 159 0 142 -10 181 -46 181 -9 0 -41 -25 -73 -55 -64 -61 -102 -74 -276 -94
-180 -21 -233 -23 -270 -11 -39 13 -65 51 -65 95 0 31 27 82 48 90 8 3 96 15
195 26 115 13 188 26 204 36 13 8 69 75 125 147 194 250 275 326 349 326 14 0
47 -11 75 -25z"/>
<path d="M100 1757 l0 -62 843 -843 842 -842 60 0 60 0 0 250 0 250 -217 0
-218 0 0 218 0 217 -220 -3 -220 -4 0 221 0 221 -215 0 -215 0 0 220 0 220
-250 0 -250 0 0 -63z m450 4 c6 -12 10 -94 10 -199 0 -169 1 -180 21 -198 19
-17 42 -20 213 -24 l191 -5 5 -192 c7 -255 -12 -236 243 -243 l192 -5 3 -190
c3 -253 -14 -235 226 -235 100 0 187 -4 194 -8 9 -7 12 -55 10 -208 l-3 -199
-28 0 c-23 0 -158 131 -857 830 -687 686 -830 834 -830 857 0 14 6 29 13 31 6
3 96 6 199 6 175 1 188 0 198 -18z"/>
</g>
</svg>
