<?xml version="1.0" standalone="no"?>
<!DOCTYPE svg PUBLIC "-//W3C//DTD SVG 20010904//EN"
 "http://www.w3.org/TR/2001/REC-SVG-20010904/DTD/svg10.dtd">
<svg version="1.0" xmlns="http://www.w3.org/2000/svg"
 width="300.000000pt" height="300.000000pt" viewBox="0 0 300.000000 300.000000"
 preserveAspectRatio="xMidYMid meet">
<metadata>
Created by potrace 1.10, written by Peter Selinger 2001-2011
</metadata>
<g transform="translate(0.000000,300.000000) scale(0.100000,-0.100000)"
fill="#000000" stroke="none">
<path d="M580 2510 c-193 -37 -283 -81 -292 -143 -3 -19 -11 -23 -54 -27 -56
-6 -95 -27 -121 -67 -17 -25 -18 -83 -21 -831 -2 -787 -2 -806 18 -846 11 -23
34 -50 52 -61 32 -19 55 -20 586 -23 529 -3 554 -3 585 -22 28 -17 50 -20 167
-20 117 0 139 3 167 20 31 19 56 19 585 22 531 3 554 4 586 23 18 11 41 38 52
61 20 40 20 59 18 846 -3 748 -4 806 -21 831 -26 40 -65 61 -121 67 -43 4 -51
8 -54 27 -6 43 -58 81 -145 107 -323 98 -687 67 -987 -84 l-80 -40 -80 40
c-249 125 -571 171 -840 120z m324 -21 c4 -3 -58 -9 -137 -12 -157 -6 -169 -8
-179 -22 -5 -6 -12 -5 -20 3 -7 8 -8 13 -3 12 6 -2 12 -1 15 0 34 17 310 33
324 19z m1372 -2 c9 -8 10 -8 -91 -8 -106 0 -127 2 -85 11 43 8 167 6 176 -3z
m-1260 -7 c19 0 34 -5 34 -11 0 -13 -80 -2 -95 14 -7 7 -4 8 8 3 10 -3 34 -6
53 -6z m1038 0 c-5 -5 -31 -11 -59 -14 l-50 -5 38 12 c48 16 83 19 71 7z m322
0 c13 0 24 -4 24 -8 0 -5 -15 -7 -32 -5 -18 2 -41 4 -50 4 -10 0 -21 5 -24 11
-5 8 3 9 26 5 18 -4 43 -7 56 -7z m-1256 -26 c72 -5 144 -34 86 -34 -14 0 -28
5 -31 10 -3 6 -21 10 -39 10 -19 0 -39 7 -47 17 -12 15 -12 16 1 8 8 -6 22
-10 30 -11z m-670 -21 c0 -5 -19 -17 -41 -28 -72 -34 -72 -33 -73 -335 -1
-147 -4 -266 -8 -263 -5 2 -8 100 -8 218 l0 213 -32 27 -31 27 27 21 c14 12
35 35 45 51 23 35 121 91 121 69z m615 -18 c110 -23 216 -59 305 -104 l75 -37
5 -720 c3 -395 4 -721 3 -723 -1 -1 -28 9 -60 24 -132 63 -307 111 -438 121
-44 3 -92 7 -107 9 -50 6 -250 -15 -335 -35 -102 -24 -107 -24 -127 -4 -14 14
-16 91 -16 702 0 378 4 692 8 698 17 26 113 56 257 80 103 17 324 12 430 -11z
m1360 0 c110 -24 173 -44 189 -61 14 -14 16 -93 16 -704 0 -613 -2 -690 -16
-704 -20 -20 -22 -20 -134 6 -82 19 -124 22 -300 23 -190 0 -213 -2 -310 -27
-109 -27 -175 -51 -268 -95 -29 -14 -54 -23 -55 -22 -1 2 0 327 3 722 l5 717
34 21 c90 54 255 110 406 135 100 17 332 11 430 -11z m179 4 c27 -12 55 -36
71 -60 27 -41 65 -64 102 -60 29 3 81 -47 87 -83 3 -16 2 -25 -2 -21 -4 3 -6
9 -4 11 1 2 -12 20 -29 39 -42 46 -96 49 -129 8 -19 -25 -21 -39 -21 -177 1
-83 0 -169 0 -191 l0 -40 -8 33 c-5 17 -9 129 -9 247 -1 241 -3 250 -73 282
-21 10 -39 21 -39 26 0 11 6 9 54 -14z m-833 -3 c-6 -7 -39 -23 -74 -35 -91
-32 -141 -60 -163 -92 -24 -37 -38 -36 -65 0 -12 17 -48 41 -83 56 -33 15 -74
33 -90 41 -16 8 -38 14 -50 14 -16 0 -17 3 -8 12 10 10 17 10 32 0 11 -6 24
-12 29 -12 5 0 47 -17 93 -38 115 -54 110 -53 158 -26 23 13 46 24 50 24 4 0
25 8 46 17 35 15 123 50 133 52 2 1 -2 -5 -8 -13z m-1521 -126 c0 -5 -11 -10
-24 -10 -26 0 -76 -50 -76 -76 0 -9 -5 -12 -10 -9 -7 4 -7 13 0 26 6 10 8 19
4 19 -12 0 30 42 51 51 28 11 55 11 55 -1z m30 -685 c0 -718 -1 -704 66 -746
20 -12 34 -29 34 -41 0 -34 33 -79 72 -99 35 -18 63 -19 428 -19 l391 0 -3
-45 -3 -46 -524 1 c-367 0 -528 4 -538 11 -18 16 -20 1598 -1 1617 7 7 27 12
45 12 l33 0 0 -645z m2518 633 c18 -18 17 -1601 -1 -1617 -9 -7 -177 -11 -540
-13 l-527 -3 0 48 0 47 390 0 c365 0 393 1 428 19 39 20 72 65 72 99 0 12 14
29 34 41 67 42 66 28 66 746 l0 645 33 0 c18 0 38 -5 45 -12z m69 -273 c1 -91
-1 -167 -5 -169 -4 -2 -8 72 -9 165 -1 93 1 169 5 169 4 0 8 -74 9 -165z m2
-275 c0 -49 -3 -90 -7 -90 -4 0 -9 41 -10 90 -2 52 1 90 6 90 5 0 10 -40 11
-90z m-2531 -115 c0 -25 -4 -43 -9 -39 -13 8 -8 84 6 84 2 0 3 -20 3 -45z
m-191 -238 c-1 -45 -3 -5 -3 88 0 94 2 130 3 82 2 -48 2 -125 0 -170z m2721
179 c-1 -101 -16 -118 -16 -20 0 72 3 94 13 94 2 0 4 -33 3 -74z m-191 -18
c-2 -18 -4 -6 -4 27 0 33 2 48 4 33 2 -15 2 -42 0 -60z m-2343 -345 c-1 -146
1 -183 14 -203 37 -59 48 -60 209 -29 217 42 534 21 688 -46 17 -7 39 -16 50
-20 11 -4 49 -18 84 -31 l63 -25 33 35 33 35 12 -29 c7 -17 18 -30 24 -31 31
-3 62 5 106 27 26 13 54 24 62 24 8 0 18 4 23 9 11 11 109 39 165 47 19 3 60
10 90 16 62 12 255 15 345 5 70 -7 163 -24 175 -32 5 -3 31 -6 57 -7 40 0 50
3 70 28 13 16 23 35 23 42 0 7 5 10 10 7 20 -12 9 -36 -40 -90 -28 -30 -50
-62 -50 -71 0 -9 -14 -29 -31 -45 l-31 -29 -388 0 -389 0 -21 -27 c-15 -20
-19 -35 -15 -57 11 -54 15 -64 31 -70 26 -10 1030 -7 1056 3 14 5 34 27 45 50
15 30 22 37 27 26 9 -23 -19 -81 -46 -97 -18 -10 -135 -13 -564 -14 l-540 -1
-50 -23 c-40 -19 -69 -24 -161 -26 -103 -3 -115 -1 -159 22 l-47 25 -541 3
c-542 4 -560 4 -584 20 -31 19 -48 106 -21 106 5 0 8 -3 8 -7 -4 -26 4 -47 26
-68 l24 -25 525 0 c579 0 547 -4 560 64 8 43 -6 73 -40 86 -14 6 -186 10 -399
10 l-373 0 -31 29 c-17 16 -31 36 -31 44 0 8 -21 39 -47 68 l-48 52 -3 205
c-2 112 1 202 5 199 5 -3 8 -86 7 -184z m-186 -335 l-2 -113 -5 95 c-6 89 -4
130 5 130 2 0 3 -51 2 -112z"/>
<path d="M642 2188 c-104 -13 -122 -21 -122 -57 0 -46 21 -52 135 -34 164 25
331 11 524 -44 102 -28 124 -25 129 19 4 34 -9 42 -113 72 -179 51 -373 67
-553 44z m318 -23 c168 -19 320 -63 320 -92 0 -18 -31 -15 -124 11 -162 45
-362 59 -515 36 -53 -9 -76 -9 -84 -1 -20 20 9 33 105 46 125 17 152 17 298 0z"/>
<path d="M612 1936 c-83 -14 -95 -22 -90 -62 3 -28 4 -29 58 -27 343 15 460 6
628 -49 74 -25 97 -18 97 28 0 23 -7 32 -35 45 -44 21 -184 56 -275 69 -93 13
-292 11 -383 -4z m353 -17 c142 -17 315 -66 315 -89 0 -20 -29 -22 -78 -6
-150 50 -413 71 -566 46 -43 -7 -63 -6 -73 2 -25 20 7 37 92 47 98 11 217 11
310 0z"/>
<path d="M610 1688 c-72 -10 -90 -21 -90 -53 0 -42 22 -49 113 -36 182 25 389
9 558 -45 88 -28 119 -22 119 21 0 31 -26 48 -115 74 -163 48 -408 65 -585 39z
m395 -23 c55 -8 123 -22 150 -30 28 -8 53 -14 58 -14 24 -1 66 -33 61 -46 -8
-19 -3 -19 -98 10 -153 46 -326 59 -538 40 -78 -7 -88 -6 -88 8 0 42 266 60
455 32z"/>
<path d="M725 1454 c-79 -6 -178 -24 -192 -36 -18 -14 -16 -53 2 -68 12 -10
31 -10 92 0 166 26 394 9 563 -43 84 -25 106 -25 115 4 14 42 -3 58 -88 83
-150 46 -351 70 -492 60z m295 -39 c108 -16 228 -51 250 -72 13 -12 13 -15 1
-22 -8 -5 -19 -7 -25 -5 -173 59 -372 83 -553 65 -91 -10 -128 -10 -136 -2 -7
7 -7 14 -1 20 29 30 313 39 464 16z"/>
<path d="M1985 2184 c-98 -15 -263 -60 -283 -77 -7 -5 -12 -21 -10 -35 5 -44
27 -47 129 -19 52 15 121 32 154 39 77 15 333 15 408 0 72 -14 97 -5 97 39 0
37 -15 43 -136 58 -116 14 -247 12 -359 -5z m307 -15 c118 -12 139 -16 151
-28 16 -16 -2 -29 -35 -25 -18 2 -97 7 -175 10 -153 7 -239 -2 -373 -38 -114
-31 -139 -33 -136 -13 5 32 136 70 301 89 141 16 158 17 267 5z"/>
<path d="M2040 1945 c-8 -2 -49 -9 -90 -15 -82 -13 -227 -56 -248 -73 -17 -14
-11 -57 9 -70 12 -8 34 -5 81 11 168 55 285 64 628 49 l55 -2 3 32 c4 40 -10
47 -115 63 -64 9 -284 12 -323 5z m353 -33 c56 -11 60 -14 51 -36 -5 -12 -13
-16 -28 -11 -11 3 -89 9 -172 12 -163 6 -267 -4 -394 -39 -87 -24 -121 -28
-127 -12 -9 25 169 78 313 93 92 10 288 6 357 -7z"/>
<path d="M1955 1684 c-98 -18 -212 -51 -242 -70 -29 -18 -30 -59 -3 -74 16 -8
38 -5 99 14 169 54 376 70 558 45 65 -10 86 -9 98 1 18 15 20 54 3 68 -40 32
-367 42 -513 16z m385 -14 c98 -15 110 -19 110 -35 0 -18 -24 -18 -165 -5
-126 12 -284 -1 -420 -37 -117 -30 -137 -32 -142 -16 -14 39 258 100 452 102
55 0 129 -4 165 -9z"/>
<path d="M2065 1450 c-166 -15 -360 -68 -370 -100 -9 -28 3 -58 23 -62 9 -2
50 7 90 19 163 51 402 69 569 42 58 -9 76 -9 88 1 18 15 20 54 2 68 -30 26
-271 45 -402 32z m304 -32 c73 -12 91 -22 74 -39 -7 -7 -46 -7 -133 2 -155 16
-321 2 -471 -41 -68 -20 -107 -26 -113 -20 -28 28 110 79 259 95 33 4 62 9 64
11 10 9 259 3 320 -8z"/>
<path d="M473 643 c141 -2 373 -2 515 0 141 1 25 2 -258 2 -283 0 -399 -1
-257 -2z"/>
<path d="M2013 643 c141 -2 373 -2 515 0 141 1 25 2 -258 2 -283 0 -399 -1
-257 -2z"/>
<path d="M616 904 c-102 -16 -160 -40 -164 -69 -5 -36 21 -57 79 -65 91 -11
739 -4 752 9 8 8 -92 11 -382 11 -251 0 -399 4 -412 10 -10 6 -19 19 -19 29 0
46 369 78 545 47 50 -8 130 -27 179 -41 94 -27 119 -27 65 1 -138 71 -427 102
-643 68z"/>
<path d="M2025 910 c-84 -11 -122 -18 -185 -36 -59 -17 -135 -53 -127 -60 2
-3 52 9 110 25 154 43 248 54 405 48 171 -6 302 -32 302 -58 0 -10 -9 -23 -19
-29 -13 -6 -162 -10 -413 -10 -306 -1 -389 -3 -373 -12 15 -9 125 -12 405 -11
383 1 385 1 402 23 46 57 1 92 -147 116 -63 10 -294 13 -360 4z"/>
</g>
</svg>
