<svg version="1.1" id="Layer_1" xmlns="http://www.w3.org/2000/svg" xmlns:xlink="http://www.w3.org/1999/xlink" x="0px" y="0px"
	 width="100%" viewBox="0 0 512 512" enable-background="new 0 0 512 512" xml:space="preserve">
<path fill="#000000" opacity="1.000000" stroke="none" 
	d="
M240.000000,1.000000 
	C251.687561,1.000000 263.375122,1.000000 275.788361,1.191639 
	C277.415771,1.776827 278.281616,2.345108 279.224426,2.538552 
	C308.144257,8.472422 330.127869,24.580875 346.044617,48.993931 
	C358.183594,67.612633 363.249969,88.237396 362.517181,110.587395 
	C361.872498,130.249954 356.494812,148.092621 345.889862,164.571640 
	C340.768341,172.530014 334.523529,179.512543 328.132385,186.172485 
	C328.779510,188.032547 330.125092,188.309967 331.394470,188.698914 
	C349.543671,194.260162 365.022858,204.368530 379.123901,216.797089 
	C380.762024,218.240952 382.504272,218.834961 384.620941,218.424286 
	C412.597900,212.996109 440.850037,211.019318 469.313965,211.604782 
	C477.742432,211.778137 483.339233,217.236649 483.362762,225.645660 
	C483.402832,239.977371 483.382721,254.309265 483.375824,268.641083 
	C483.374603,271.196533 483.415253,273.455200 486.409241,274.780701 
	C500.605347,281.065491 509.209564,292.072662 513.000000,307.000000 
	C513.000000,323.354218 513.000000,339.708466 512.990112,356.897369 
	C508.861053,371.625153 500.977600,382.525909 487.567688,388.684753 
	C484.239319,390.213409 483.293579,392.185760 483.323944,395.585571 
	C483.451904,409.911377 483.353333,424.239105 483.390198,438.565948 
	C483.396759,441.120392 482.893921,443.380096 481.578979,445.666931 
	C477.632050,452.531219 470.835876,453.318756 464.263733,453.268005 
	C447.780090,453.140625 431.432037,454.362823 415.089508,456.318573 
	C393.314240,458.924438 371.991943,463.494629 351.071289,470.060272 
	C330.542236,476.502960 311.001801,485.290436 292.184631,495.566895 
	C282.765869,500.710663 273.247589,505.925873 265.000000,513.000000 
	C259.977905,513.000000 254.955811,513.000000 249.299316,512.717407 
	C240.337967,506.065765 231.304230,500.733856 222.157227,495.747833 
	C194.952194,480.918488 166.418549,469.367615 136.039246,462.726562 
	C110.739410,457.195953 85.203751,453.605499 59.256733,453.411041 
	C55.761272,453.384827 52.248482,453.608063 48.773155,453.337585 
	C37.309288,452.445282 29.884205,448.861267 30.512293,434.574890 
	C31.067404,421.948517 30.494978,409.276184 30.699850,396.628693 
	C30.766808,392.495300 29.778149,390.007904 25.618084,388.211945 
	C19.497831,385.569702 14.585904,381.178436 10.196636,375.937531 
	C5.902255,370.809875 4.090959,364.618958 1.000000,359.000000 
	C1.000000,340.979095 1.000000,322.958221 1.277220,304.277954 
	C2.129493,302.438751 2.792832,301.293182 3.265850,300.073792 
	C7.620916,288.846985 15.301006,280.616180 26.125031,275.544159 
	C29.555996,273.936462 30.724491,271.962982 30.685293,268.319397 
	C30.531143,253.990738 30.590549,239.659271 30.643696,225.329102 
	C30.673853,217.197495 36.284538,211.502426 44.474709,211.654694 
	C56.603168,211.880188 68.710304,211.460373 80.873001,212.405457 
	C96.919464,213.652313 112.854080,215.388580 128.670090,218.261154 
	C131.413605,218.759430 133.420349,218.182846 135.479950,216.357376 
	C148.791809,204.558899 163.421234,194.944855 180.513840,189.424484 
	C182.445206,188.800705 184.717087,188.338974 185.907898,185.867279 
	C175.976135,177.059128 168.382980,166.425262 162.312317,154.765778 
	C151.128891,133.286621 148.538651,110.071617 153.035217,86.849823 
	C160.212021,49.786419 181.905121,23.342920 216.649170,7.947587 
	C224.141525,4.627674 232.168152,3.152610 240.000000,1.000000 
M170.109238,261.654480 
	C165.513428,260.222229 160.952957,258.662109 156.315659,257.379944 
	C136.643005,251.940613 116.690048,247.828918 96.396667,245.604340 
	C86.681419,244.539337 76.894119,244.141098 67.144852,243.372559 
	C62.793190,243.029510 61.171509,244.944672 61.322906,249.243332 
	C61.545624,255.566681 61.537560,261.909180 61.318893,268.232819 
	C61.192276,271.894531 62.568230,273.800812 65.892548,275.499939 
	C82.380325,283.927185 91.416061,297.229919 91.379845,316.129456 
	C91.361649,325.626251 91.446449,335.123871 91.342682,344.619568 
	C91.299271,348.592621 91.697952,352.561523 90.837677,356.549011 
	C87.596321,371.573029 78.909225,382.253723 65.216202,388.898407 
	C62.619202,390.158600 61.328316,391.666687 61.361614,394.568939 
	C61.447624,402.065399 61.432243,409.563934 61.362885,417.060760 
	C61.333965,420.186768 62.663017,421.528076 65.834686,421.652771 
	C74.942833,422.010895 84.027306,422.714355 93.115326,423.497498 
	C112.630951,425.179108 131.812912,428.675720 150.810318,433.274872 
	C180.522232,440.468018 208.565140,452.003265 235.571976,466.188263 
	C241.363342,469.230042 241.616180,469.064331 241.618683,462.206787 
	C241.628571,435.215820 241.624573,408.224854 241.624374,381.233887 
	C241.624176,354.742767 241.604858,328.251587 241.644424,301.760529 
	C241.649109,298.619507 241.281586,296.029449 238.168625,294.129944 
	C216.817993,281.101990 194.500137,270.136169 170.109238,261.654480 
M399.330444,248.248703 
	C396.379791,248.698456 393.413452,249.064056 390.480865,249.610687 
	C349.744843,257.203949 311.742828,271.848938 276.495056,293.675598 
	C273.598175,295.469452 272.322296,297.484528 272.326569,300.886322 
	C272.394531,355.183563 272.365662,409.480927 272.396820,463.778259 
	C272.399628,468.701538 273.084045,468.996521 277.529694,466.662933 
	C296.241333,456.840851 315.370514,447.893219 335.440521,441.241547 
	C371.856354,429.172485 409.351959,422.929077 447.673584,421.668732 
	C451.341614,421.548096 452.722168,420.130493 452.656982,416.549103 
	C452.529663,409.556122 452.453461,402.552917 452.701385,395.566223 
	C452.833038,391.855225 451.375214,390.089539 448.083862,388.400604 
	C431.837158,380.063782 422.719788,366.970856 422.637085,348.287506 
	C422.592133,338.127747 422.830688,327.962952 422.590210,317.808746 
	C422.111542,297.595276 431.555023,283.652130 449.295380,274.901306 
	C451.573730,273.777466 452.634705,272.435181 452.622070,269.977051 
	C452.584534,262.648804 452.568573,255.319855 452.634979,247.992004 
	C452.663330,244.863007 451.276031,243.592148 448.150299,243.359680 
	C443.604950,243.021591 439.243591,244.366013 434.762207,244.385513 
	C423.109222,244.436203 411.676270,246.561951 399.330444,248.248703 
M299.115112,45.404366 
	C288.781586,38.293507 277.314087,33.576134 264.931061,32.563828 
	C236.965424,30.277655 214.083359,40.395145 197.304779,63.099350 
	C185.609634,78.924843 181.275070,97.014656 183.707535,116.385986 
	C186.009308,134.716614 194.917877,149.665192 208.495438,162.301117 
	C232.337067,184.489288 273.308075,187.026031 299.273621,167.428604 
	C316.362823,154.530548 327.522736,137.905029 330.261841,116.502220 
	C332.333801,100.312325 329.494568,84.808563 321.345245,70.356979 
	C315.835388,60.586105 308.209351,52.864376 299.115112,45.404366 
M175.797287,226.796539 
	C172.578339,229.751968 176.122375,230.010422 177.506546,230.462494 
	C204.503220,239.279404 230.039780,251.230759 254.212387,266.097687 
	C256.405518,267.446533 257.907043,267.364746 260.055878,266.035431 
	C283.624481,251.455597 308.497833,239.631470 334.849670,230.968613 
	C336.515259,230.421066 338.521057,230.085754 338.618591,227.662048 
	C337.704865,226.039276 335.967194,225.681213 334.545197,224.892044 
	C317.964203,215.689819 299.807678,212.676590 281.249756,212.545654 
	C262.127380,212.410736 243.003448,212.051788 223.846848,213.159058 
	C206.840454,214.142044 191.179337,218.497437 175.797287,226.796539 
M468.403625,303.386597 
	C460.560486,303.608307 455.584412,307.645935 454.381561,315.391205 
	C452.666962,326.431915 452.670715,337.542786 454.392578,348.585968 
	C455.549561,356.006683 460.964691,360.603149 467.952972,360.613800 
	C475.158844,360.624756 480.182037,356.193634 481.646973,348.735077 
	C483.559753,338.996582 482.881134,329.145355 482.383972,319.405762 
	C481.867096,309.278992 477.312988,304.540253 468.403625,303.386597 
M31.375669,329.520660 
	C31.576773,336.146637 30.843233,342.798950 32.382656,349.383728 
	C33.946629,356.073517 39.477165,360.690948 46.269127,360.617737 
	C52.734680,360.548035 58.490021,355.864197 59.529957,349.314209 
	C61.363667,337.764709 61.362434,326.151031 59.532772,314.603973 
	C58.467899,307.883545 52.584717,303.333282 45.741421,303.384247 
	C39.410301,303.431366 33.833912,308.317017 32.355362,314.654419 
	C31.279888,319.264191 31.415062,323.888000 31.375669,329.520660 
z"/>
</svg>